#!OML:ASF H:\Terrain\Patient Classification 1\Walking\liu\liu.ASF
:FULLY-SPECIFIED
:DEGREES
100
root 9.26714557615 17.0913928604 14.4655653024 6.40371254978 7.79272827817 -2.27176089302
lowerback -5.91316926027 -1.72793484708 -0.736506409086
upperback -1.33522610602 -2.31861424369 2.79255039007
thorax 2.08332597048 -1.16579765506 3.11389456418
lowerneck -19.6226693658 -6.10612133837 -13.4438084354
upperneck 20.5908320645 -7.97335270914 14.1377184643
head 11.057887103 -3.09990433709 6.19626335904
rclavicle 5.22965918716e-15 4.45816048476e-15
rhumerus -40.5853342178 14.2568733151 -85.1428232541
rradius 40.2778840575
rwrist -22.9480566348
rhand -30.3697199903 -27.810251127
rfingers 7.12502
rthumb -3.67447166116 -57.7582524598
lclavicle 5.22965918716e-15 4.45816048476e-15
lhumerus -40.1125560171 -22.4330943299 100.045434474
lradius 26.6658243547
lwrist 9.19309089835
lhand -14.3147335465 -20.9541384915
lfingers 7.12502
lthumb 11.8256388252 8.69241401833
rfemur -21.4788566892 4.87239268846 27.2501684678
rtibia 32.1582340762
rfoot -15.1883386844 1.26556699485
rtoes -12.4942913247
lfemur -19.5756468557 7.64386785584 -15.1240448997
ltibia 64.855656618
lfoot -6.91351255878 10.8691041462
ltoes -5.08829053554
101
root 9.27950384052 17.0926059039 14.8987460013 6.56881964127 7.06877266096 -2.14220168732
lowerback -5.87064826079 -1.36096107848 -0.794903830497
upperback -1.40581106568 -1.82169763072 2.68003811162
thorax 1.95462486583 -0.91580606838 3.07155692628
lowerneck -19.5532374167 -5.93533257387 -12.8935210688
upperneck 21.098686284 -7.75841961648 13.3617279834
head 11.1319706922 -3.04450896887 5.85650143568
rclavicle 1.09793459265e-14 1.59727362546e-15
rhumerus -39.0532304477 16.3403544146 -85.3800199872
rradius 41.7816304909
rwrist -23.272818817
rhand -30.1981226062 -26.4398769853
rfingers 7.12502
rthumb -3.50879787175 -56.3907173674
lclavicle 1.09793459265e-14 1.59727362546e-15
lhumerus -42.8473724542 -21.5846675474 99.782199046
lradius 27.9143328247
lwrist 11.008430117
lhand -15.3485246221 -22.166060735
lfingers 7.12502
lthumb 10.8285457461 7.53481293554
rfemur -19.4503953446 5.30426061536 27.4225709734
rtibia 31.4226953725
rfoot -16.6518150302 1.57381773706
rtoes -13.0765420717
lfemur -24.6948228839 6.73414513664 -16.5638355951
ltibia 64.5662948997
lfoot -9.3996548512 11.0579919508
ltoes -4.93658594596
102
root 9.28677333026 17.0708698159 15.3304623719 6.33957755434 5.97537487851 -2.28364603982
lowerback -6.02434837653 -0.836915797085 -0.687791048824
upperback -0.691935429313 -1.145975396 2.6931590619
thorax 2.73376585153 -0.591161280049 3.07147878346
lowerneck -20.8900910757 -6.20975378597 -12.8014638103
upperneck 21.535483993 -7.95395081286 12.966507049
head 11.5611591424 -3.12127357335 5.66356251247
rclavicle -9.89387025102e-15 -2.05740252327e-14
rhumerus -36.0074170999 17.6072130749 -84.8301241244
rradius 42.501154725
rwrist -23.0375057105
rhand -29.638431447 -28.7859064451
rfingers 7.12502
rthumb -2.96825113486 -58.7450594805
lclavicle -9.89387025102e-15 -2.05740252327e-14
lhumerus -43.5346560157 -20.0515207975 98.3588933505
lradius 28.5032834377
lwrist 11.2151491825
lhand -14.0896708234 -22.289379492
lfingers 7.12502
lthumb 12.04271304 7.34415311635
rfemur -17.3415532932 5.99997901124 27.8966169333
rtibia 31.150103144
rfoot -17.8081994712 2.04142544233
rtoes -11.9433716475
lfemur -28.8798736914 6.39593074543 -17.4127895622
ltibia 63.0627707235
lfoot -13.0779413421 11.1648329921
ltoes -4.00706112396
103
root 9.305859789 17.0632423584 15.7492147403 6.25352126496 4.96323500684 -2.80887534151
lowerback -5.67092552085 -0.217239411696 -0.129825389682
upperback -0.80915463104 -0.348783728391 2.6984946717
thorax 2.3644299105 -0.184045887809 2.82804717874
lowerneck -20.2709960949 -6.27571262268 -12.5127758428
upperneck 21.5528647607 -8.11778435481 12.5926354745
head 11.4392924242 -3.23565850384 5.44304924045
rclavicle 6.71553776515e-15 -1.56596415416e-14
rhumerus -34.625052752 17.5486218698 -84.4366927006
rradius 43.5633784337
rwrist -22.3554285039
rhand -30.7147526979 -24.4268360558
rfingers 7.12502
rthumb -4.00768573413 -54.3688525863
lclavicle 6.71553776515e-15 -1.56596415416e-14
lhumerus -45.675454641 -19.3603668838 98.1325350605
lradius 28.8457206125
lwrist 12.7779370541
lhand -14.252539533 -21.8520770062
lfingers 7.12502
lthumb 11.8856272266 7.79059641101
rfemur -15.2502198738 6.27881395796 28.7974396371
rtibia 30.445865161
rfoot -19.3903383245 2.00514220472
rtoes -18.0227633502
lfemur -32.7465479789 5.84072390277 -17.6594493277
ltibia 60.0594154173
lfoot -14.4419487898 11.7074936894
ltoes -2.41368496924
104
root 9.33452166947 17.0704173548 16.1910378538 6.20845973117 3.78571170246 -3.07726291487
lowerback -5.78422290183 0.384510178582 0.129740040748
upperback -0.674346638186 0.43013620551 2.7844499239
thorax 2.52849747896 0.20476405423 2.83259559792
lowerneck -19.9614516372 -6.24318151231 -12.4681548094
upperneck 21.4454381334 -8.09172431603 12.5254712259
head 11.3293425154 -3.23840543259 5.41220896291
rclavicle -3.06006013479e-15 -3.87502604517e-15
rhumerus -33.0091985619 18.335229059 -83.9826055537
rradius 44.3632997112
rwrist -23.2291334586
rhand -31.3082645882 -23.7268555259
rfingers 7.12502
rthumb -4.58078092873 -53.6573924309
lclavicle -3.06006013479e-15 -3.87502604517e-15
lhumerus -46.8191320265 -17.8510861686 97.6451727214
lradius 28.2866369178
lwrist 12.2550696188
lhand -14.7316112694 -22.4233192542
lfingers 7.12502
lthumb 11.4236183692 7.2454182931
rfemur -12.6767624851 6.10898399826 29.1271913736
rtibia 28.8644878543
rfoot -19.1926108073 3.15862000437
rtoes -14.1968886337
lfemur -35.5930211231 5.49248736159 -17.9216075658
ltibia 55.3815354147
lfoot -14.971948273 11.8271136854
ltoes -3.02931549381
